<svg width="15" height="15" viewBox="0 0 15 15" fill="none" xmlns="http://www.w3.org/2000/svg">
<path d="M7.99976 4.0567C5.99976 4.0567 4.40601 5.6817 4.40601 7.65045C4.40601 9.65045 5.99976 11.2442 7.99976 11.2442C9.96851 11.2442 11.5935 9.65045 11.5935 7.65045C11.5935 5.6817 9.96851 4.0567 7.99976 4.0567ZM7.99976 9.9942C6.71851 9.9942 5.65601 8.96295 5.65601 7.65045C5.65601 6.3692 6.68726 5.33795 7.99976 5.33795C9.28101 5.33795 10.3123 6.3692 10.3123 7.65045C10.3123 8.96295 9.28101 9.9942 7.99976 9.9942ZM12.5623 3.9317C12.5623 3.46295 12.1873 3.08795 11.7185 3.08795C11.2498 3.08795 10.8748 3.46295 10.8748 3.9317C10.8748 4.40045 11.2498 4.77545 11.7185 4.77545C12.1873 4.77545 12.5623 4.40045 12.5623 3.9317ZM14.9373 4.77545C14.8748 3.65045 14.6248 2.65045 13.8123 1.83795C12.9998 1.02545 11.9998 0.775452 10.8748 0.712952C9.71851 0.650452 6.24976 0.650452 5.09351 0.712952C3.96851 0.775452 2.99976 1.02545 2.15601 1.83795C1.34351 2.65045 1.09351 3.65045 1.03101 4.77545C0.968506 5.9317 0.968506 9.40045 1.03101 10.5567C1.09351 11.6817 1.34351 12.6505 2.15601 13.4942C2.99976 14.3067 3.96851 14.5567 5.09351 14.6192C6.24976 14.6817 9.71851 14.6817 10.8748 14.6192C11.9998 14.5567 12.9998 14.3067 13.8123 13.4942C14.6248 12.6505 14.8748 11.6817 14.9373 10.5567C14.9998 9.40045 14.9998 5.9317 14.9373 4.77545ZM13.4373 11.7755C13.2185 12.4005 12.7185 12.8692 12.1248 13.1192C11.1873 13.4942 8.99976 13.4005 7.99976 13.4005C6.96851 13.4005 4.78101 13.4942 3.87476 13.1192C3.24976 12.8692 2.78101 12.4005 2.53101 11.7755C2.15601 10.8692 2.24976 8.6817 2.24976 7.65045C2.24976 6.65045 2.15601 4.46295 2.53101 3.52545C2.78101 2.9317 3.24976 2.46295 3.87476 2.21295C4.78101 1.83795 6.96851 1.9317 7.99976 1.9317C8.99976 1.9317 11.1873 1.83795 12.1248 2.21295C12.7185 2.4317 13.1873 2.9317 13.4373 3.52545C13.8123 4.46295 13.7185 6.65045 13.7185 7.65045C13.7185 8.6817 13.8123 10.8692 13.4373 11.7755Z" fill="#3B3B3B"/>
</svg>
