<svg width="14" height="15" viewBox="0 0 14 15" fill="none" xmlns="http://www.w3.org/2000/svg">
<path d="M12.9998 0.650452H0.968506C0.437256 0.650452 -0.000244141 1.1192 -0.000244141 1.6817V13.6505C-0.000244141 14.213 0.437256 14.6505 0.968506 14.6505H12.9998C13.531 14.6505 13.9998 14.213 13.9998 13.6505V1.6817C13.9998 1.1192 13.531 0.650452 12.9998 0.650452ZM4.21851 12.6505H2.15601V5.9942H4.21851V12.6505ZM3.18726 5.0567C2.49976 5.0567 1.96851 4.52545 1.96851 3.8692C1.96851 3.21295 2.49976 2.65045 3.18726 2.65045C3.84351 2.65045 4.37476 3.21295 4.37476 3.8692C4.37476 4.52545 3.84351 5.0567 3.18726 5.0567ZM11.9998 12.6505H9.90601V9.40045C9.90601 8.65045 9.90601 7.65045 8.84351 7.65045C7.74976 7.65045 7.59351 8.4942 7.59351 9.3692V12.6505H5.53101V5.9942H7.49976V6.90045H7.53101C7.81226 6.3692 8.49976 5.8067 9.49976 5.8067C11.5935 5.8067 11.9998 7.21295 11.9998 8.9942V12.6505Z" fill="#3B3B3B"/>
</svg>
